<?xml version="1.0" encoding="UTF-8"?>
<svg version="1.1" xmlns="http://www.w3.org/2000/svg" width="1024" height="1024">
<path d="M0 0 C0.75887095 -0.00155999 1.5177419 -0.00311998 2.29960895 -0.00472724 C4.82132124 -0.00868882 7.34297241 -0.00556622 9.86468506 -0.00241089 C11.68248021 -0.00376731 13.50027509 -0.00554859 15.31806946 -0.00772095 C20.24701138 -0.01227313 25.17593233 -0.01051309 30.10487461 -0.00734186 C35.29277666 -0.00479913 40.48067698 -0.00716183 45.6685791 -0.00872803 C54.40110595 -0.01054739 63.13362434 -0.0081529 71.8661499 -0.00338745 C81.89048775 0.00202063 91.91480514 0.00031692 101.93914247 -0.00521386 C110.59105166 -0.00979268 119.24295478 -0.01037147 127.8948648 -0.00777519 C133.04099978 -0.00623397 138.18712525 -0.00595755 143.33325958 -0.00931168 C179.93039025 -0.02944122 179.93039025 -0.02944122 197.16351318 0.44778442 C198.78987135 0.4807301 198.78987135 0.4807301 200.44908524 0.51434135 C209.04981228 0.81305392 217.0056219 2.40230105 224.3637085 7.06448364 C225.14359131 7.54788208 225.92347412 8.03128052 226.72698975 8.52932739 C235.9062516 14.83910571 242.25328727 24.28477294 245.0512085 35.12698364 C246.87137351 51.22086327 246.18290418 67.65165282 246.15260243 83.82793474 C246.14627243 87.78767248 246.14575758 91.7474113 246.14457703 95.70715332 C246.14149176 103.17578853 246.1333169 110.64440879 246.12322754 118.11303747 C246.11197838 126.62840567 246.10653396 135.14377465 246.1015321 143.65914845 C246.09113135 161.14843545 246.07358729 178.63770795 246.0512085 196.12698364 C246.7112085 196.45698364 247.3712085 196.78698364 248.0512085 197.12698364 C247.7212085 197.45698364 247.3912085 197.78698364 247.0512085 198.12698364 C247.87505161 198.1284502 248.69889473 198.12991676 249.54770279 198.13142776 C269.63056794 198.1685438 289.71326498 198.22762204 309.7959938 198.31088638 C319.50802116 198.35062824 329.21996806 198.38304534 338.93206787 198.39797974 C347.40107363 198.41102146 355.86990199 198.43805025 364.33880782 198.48159671 C368.81949349 198.50415498 373.29996082 198.51989772 377.78070831 198.51886749 C382.00630182 198.51811753 386.2314137 198.53620194 390.45688248 198.56815147 C391.99987462 198.57660436 393.54292108 198.57843208 395.08592606 198.57278633 C409.90938876 198.52581238 421.49964047 201.56978399 432.7387085 211.50198364 C442.05991786 222.0828159 446.20145626 232.01274498 446.19837952 246.1134491 C446.2020562 247.01988661 446.20573289 247.92632412 446.209521 248.86022943 C446.22053649 251.89845339 446.22439807 254.93664312 446.22821045 257.97488403 C446.23447676 260.15316882 446.24112371 262.33145255 446.24812317 264.50973511 C446.2691477 271.66469582 446.27952471 278.81965671 446.28948975 285.97463989 C446.29353803 288.43999175 446.29765498 290.90534349 446.30183983 293.37069511 C446.32088871 304.95497559 446.33511985 316.53924972 446.3434518 328.12354285 C446.35322059 341.48412259 446.37953218 354.84451879 446.41995269 368.20504194 C446.45014099 378.53900417 446.4649233 388.87291893 446.46823281 399.20692438 C446.47058035 405.37547729 446.47950255 411.54385297 446.50469398 417.71235847 C446.52802673 423.5195373 446.53218686 429.32642287 446.5219326 435.13363647 C446.52143839 437.25879837 446.5277249 439.38397495 446.54148865 441.50909233 C446.65054642 459.35367103 444.35261202 472.44011955 431.8012085 485.87698364 C423.05221916 494.31666527 412.72160655 497.38006809 400.84417725 497.54104614 C399.89843842 497.56041229 398.95269958 497.57977844 397.978302 497.59973145 C394.73186443 497.66141115 391.48542087 497.70721145 388.2387085 497.75198364 C387.1007785 497.77099731 385.96284851 497.79001099 384.79043579 497.80960083 C365.45876906 498.12941686 346.12733459 498.15536813 326.793396 498.15042114 C325.60041964 498.15014545 324.40744328 498.14986977 323.17831612 498.14958572 C310.9838619 498.14551644 298.78947144 498.13201029 286.59505844 498.09949684 C281.95499409 498.08771001 277.31492685 498.07946888 272.67485428 498.07167435 C269.41481523 498.06458627 266.15482698 498.05193178 262.89480591 498.03918457 C260.93204804 498.03560362 258.96928964 498.03230134 257.00653076 498.02932739 C255.65695927 498.02158263 255.65695927 498.02158263 254.28012371 498.01368141 C252.20347519 498.01349313 250.12691493 498.06443831 248.0512085 498.12698364 C246.26485568 499.91333646 246.91481951 502.56070095 246.90644836 504.97496033 C246.89954987 506.24635864 246.89265137 507.51775696 246.88554382 508.8276825 C246.88282872 510.25012193 246.8801916 511.67256151 246.87762451 513.09500122 C246.87132246 514.58305049 246.86455705 516.07109785 246.85736084 517.55914307 C246.84265824 520.7730603 246.83094621 523.98697009 246.82141304 527.20090675 C246.80597659 532.29126529 246.78202274 537.38156132 246.7565155 542.47187805 C246.68528593 556.95054159 246.62572744 571.42924227 246.57440186 585.9079895 C246.54600391 593.89755126 246.51056312 601.88705213 246.46774811 609.8765499 C246.44110602 614.92691177 246.4231199 619.97720473 246.41171086 625.02762282 C246.40251624 628.18798041 246.3851214 631.34825536 246.36553192 634.508564 C246.35812349 635.96287534 246.35397946 637.41720801 246.35353661 638.87153816 C246.3440015 656.21252252 244.58255302 671.24934981 232.0512085 684.12698364 C221.57150963 693.21634103 209.78688413 696.28648304 196.19677734 696.26069641 C194.87660004 696.26409475 194.87660004 696.26409475 193.52975249 696.26756173 C190.58669576 696.27388136 187.64368532 696.27307367 184.70062256 696.27224731 C182.58791037 696.2752401 180.47519872 696.2786429 178.36248779 696.28242493 C172.62681446 696.29125756 166.89115605 696.29360275 161.15547657 696.29424071 C157.57032173 696.2949517 153.98517068 696.29708696 150.40001678 696.29973793 C137.88758605 696.30898931 125.37516597 696.31307313 112.86273193 696.31228638 C101.20779845 696.31168582 89.55291128 696.32223387 77.89798951 696.33803004 C67.88505405 696.35111614 57.8721337 696.35646981 47.85918975 696.35583097 C41.88192221 696.35557627 35.90469583 696.35841181 29.92743683 696.36900902 C24.30334433 696.37870782 18.67933219 696.37875691 13.05523682 696.37149239 C10.99535759 696.37044872 8.93547331 696.37279642 6.87560272 696.37885284 C4.05483297 696.38660682 1.23433834 696.38190549 -1.58642578 696.3742218 C-2.39364948 696.37936536 -3.20087318 696.38450893 -4.0325582 696.38980836 C-18.1451491 696.30537052 -30.39013577 691.63056528 -40.68707275 681.81448364 C-50.92844835 669.6451116 -52.25307734 655.75163605 -52.17584229 640.509552 C-52.17527733 638.94174202 -52.17559638 637.3739315 -52.17672729 635.80612183 C-52.17729851 631.57327171 -52.16558181 627.34053613 -52.15157938 623.10771251 C-52.13903332 618.67546728 -52.13789847 614.24321911 -52.13552856 609.81095886 C-52.12932515 601.42827395 -52.11292981 593.04564152 -52.09282959 584.66297966 C-52.07043506 575.11519699 -52.05946823 565.56741175 -52.04943871 556.01960933 C-52.02856253 536.38870487 -51.99340878 516.75784757 -51.9487915 497.12698364 C-52.78901761 497.13067081 -53.62924372 497.13435799 -54.49493122 497.13815689 C-74.96952923 497.22661672 -95.44409416 497.29274614 -115.91884327 497.33423233 C-125.82041615 497.35482964 -135.72186122 497.38289597 -145.62335205 497.42874146 C-154.25669576 497.46869605 -162.88994686 497.49443702 -171.52338046 497.50333762 C-176.09184817 497.5085378 -180.66005104 497.52070072 -185.22843361 497.54990387 C-189.53517657 497.57720945 -193.84154753 497.58539829 -198.14836884 497.57941437 C-199.72246261 497.58050787 -201.29656982 497.58837123 -202.8705883 497.60380554 C-216.13938844 497.72744858 -226.36640596 495.39572976 -236.9487915 487.12698364 C-237.56496338 486.64874146 -238.18113525 486.17049927 -238.815979 485.67776489 C-247.9918512 477.58260653 -251.67648121 465.90840484 -252.9487915 454.12698364 C-253.31651426 447.19626292 -253.2330301 440.24861506 -253.22344971 433.31057739 C-253.2278033 431.21992817 -253.23298859 429.12928054 -253.23893738 427.03863525 C-253.25226694 421.3899418 -253.25291295 415.74131551 -253.25037408 410.09260941 C-253.24930056 405.36603863 -253.2541973 400.63948122 -253.2589795 395.91291332 C-253.27005313 384.75867387 -253.27052375 373.60446811 -253.26446533 362.45022583 C-253.2584226 350.96445362 -253.27074914 339.47880382 -253.2920354 327.99305248 C-253.30967586 318.10904507 -253.31564902 308.22507653 -253.31239766 298.34105396 C-253.31058905 292.44763162 -253.31317911 286.55429668 -253.3271122 280.66088867 C-253.33972623 275.11874943 -253.33771261 269.57680062 -253.32470131 264.03466415 C-253.32234402 262.0078716 -253.32503963 259.98106548 -253.33332443 257.95428848 C-253.37266482 247.57729712 -253.21164704 238.09617138 -249.9487915 228.12698364 C-249.49011425 226.48124612 -249.0317278 224.83542749 -248.5737915 223.18948364 C-247.14589199 219.12434115 -245.27621078 216.94805651 -241.9487915 214.12698364 C-241.32101807 213.51081177 -240.69324463 212.89463989 -240.04644775 212.25979614 C-231.53252595 204.09997958 -222.05430431 198.99772413 -210.20373535 199.00672913 C-209.52653151 199.0058747 -208.84932767 199.00502028 -208.15160251 199.00413996 C-205.88377657 199.00249363 -203.61602469 199.00799267 -201.34820557 199.01345825 C-199.72202048 199.01374033 -198.09583528 199.01358198 -196.46965027 199.01301575 C-192.05472754 199.01272859 -187.63983193 199.01861223 -183.2249155 199.0255897 C-178.6111267 199.03183673 -173.9973373 199.03242811 -169.38354492 199.03361511 C-160.646553 199.03672444 -151.90957357 199.04493248 -143.17258716 199.0549646 C-133.2258897 199.06613808 -123.27919166 199.07163931 -113.33248949 199.07666004 C-92.87124985 199.08711541 -72.41002146 199.10470716 -51.9487915 199.12698364 C-51.95155688 198.31860172 -51.95432226 197.5102198 -51.95717144 196.67734146 C-52.02354359 176.97013486 -52.07312663 157.26294763 -52.10422802 137.55565262 C-52.11966977 128.02518947 -52.14070761 118.49480112 -52.17510986 108.96438599 C-52.20509486 100.65368527 -52.22438605 92.34303876 -52.23105699 84.03228545 C-52.23495388 79.6354207 -52.24405549 75.23871094 -52.26598167 70.84189606 C-52.28649091 66.69524198 -52.29259644 62.54880532 -52.28811455 58.40210533 C-52.28893334 56.88810478 -52.29481246 55.37409622 -52.30640793 53.86013985 C-52.42043103 38.19138918 -49.88820223 24.85289421 -39.02301025 13.04495239 C-27.85225135 2.71568192 -14.78637919 -0.04759727 0 0 Z M-43.9487915 241.12698364 C-46.21949943 244.00199287 -48.09007403 246.97700762 -49.9487915 250.12698364 C-50.9465714 251.52440483 -51.94664393 252.92019137 -52.9487915 254.31448364 C-65.49178219 273.244194 -68.0845744 296.86529761 -63.7612915 318.87698364 C-60.14737035 332.62669298 -54.6626135 345.40956145 -44.84503174 355.85354614 C-44.07333853 356.68132065 -44.07333853 356.68132065 -43.28605556 357.52581787 C-35.6027476 365.70063874 -27.6159654 373.58280943 -19.67144775 381.50198364 C-17.92915684 383.24240431 -16.1870904 384.98304972 -14.44523621 386.72390747 C-9.89733213 391.2680266 -5.34643362 395.80913486 -0.79486084 400.34957886 C3.84380924 404.97797604 8.4796146 409.60924058 13.11566162 414.24026489 C20.59152189 421.70737214 28.06911385 429.17273985 35.54896545 436.635849 C36.82331885 437.9073875 38.09726784 439.1793315 39.37071037 440.45178223 C40.87240271 441.94874143 42.3813744 443.43839005 43.89131165 444.92703247 C46.0512085 447.12698364 46.0512085 447.12698364 48.2387085 449.93948364 C48.8368335 450.66135864 49.4349585 451.38323364 50.0512085 452.12698364 C50.7112085 452.12698364 51.3712085 452.12698364 52.0512085 452.12698364 C52.0512085 452.78698364 52.0512085 453.44698364 52.0512085 454.12698364 C53.44596991 455.28361506 54.84463441 456.43584882 56.262146 457.56448364 C58.93028142 459.89473292 61.15320857 462.56015154 63.43792725 465.25979614 C64.91962482 466.97469067 66.35531585 468.6226381 68.0512085 470.12698364 C68.7112085 470.12698364 69.3712085 470.12698364 70.0512085 470.12698364 C70.30031982 470.69989136 70.54943115 471.27279907 70.80609131 471.86306763 C73.25065643 476.3078622 77.23265851 479.63504976 80.8012085 483.18948364 C81.60042725 484.00481567 82.399646 484.82014771 83.2230835 485.66018677 C88.8770581 491.56119315 88.8770581 491.56119315 96.0512085 495.12698364 C103.58116887 494.59619791 107.76469324 489.0126581 112.7387085 483.81448364 C113.57982178 482.95919067 114.42093506 482.10389771 115.28753662 481.22268677 C119.81671724 476.58899661 119.81671724 476.58899661 124.00750732 471.65359497 C126.1994547 468.94370805 128.57186862 466.57679056 131.0512085 464.12698364 C131.88856033 463.29407303 132.72591217 462.46116241 133.58863831 461.60301208 C134.48354477 460.71413803 135.37845123 459.82526398 136.30047607 458.90945435 C141.34144783 453.90099118 146.3774659 448.88757906 151.41058826 443.87122822 C154.44988191 440.84242605 157.49104255 437.81554593 160.53631592 434.79275513 C163.49010332 431.86062695 166.43904107 428.92370251 169.38461876 425.98332787 C170.50766442 424.86398413 171.63247197 423.7464053 172.75904274 422.63060951 C174.32698096 421.07709827 175.88864053 419.51753349 177.44891357 417.95632935 C178.33984207 417.06984207 179.23077057 416.1833548 180.1486969 415.27000427 C182.2725074 413.35532123 182.2725074 413.35532123 182.0512085 411.12698364 C182.7112085 411.12698364 183.3712085 411.12698364 184.0512085 411.12698364 C184.0512085 410.46698364 184.0512085 409.80698364 184.0512085 409.12698364 C184.7112085 409.12698364 185.3712085 409.12698364 186.0512085 409.12698364 C187.4965387 407.69465108 187.4965387 407.69465108 189.01287842 405.78543091 C193.146793 400.92794313 197.63121063 396.49205313 202.18987465 392.03541374 C204.23107205 390.03716707 206.2622076 388.0288106 208.29415417 386.02116489 C212.05487377 382.30564629 215.81925747 378.59405552 219.60076904 374.89968872 C246.79657089 348.86652671 246.79657089 348.86652671 258.12542725 313.90823364 C258.11524829 311.9810184 258.08501456 310.05392925 258.0512085 308.12698364 C258.3812085 307.79698364 258.7112085 307.46698364 259.0512085 307.12698364 C260.53967912 283.02520936 253.59336774 260.75743371 238.0512085 242.12698364 C236.88718506 240.66325317 236.88718506 240.66325317 235.699646 239.16995239 C223.32975328 224.39447963 203.42590342 216.21611397 184.8012085 213.37698364 C162.79539765 211.90992959 139.84823877 216.37645805 122.64105225 230.92385864 C113.57575193 238.94624831 104.57733636 247.90271666 98.0512085 258.12698364 C98.0512085 258.78698364 98.0512085 259.44698364 98.0512085 260.12698364 C94.88504483 257.15870521 92.19734803 254.06920753 89.5512085 250.62698364 C73.53107364 230.49681419 53.41111334 216.86098357 27.4262085 213.43948364 C25.96939291 213.31589098 24.51077865 213.21208226 23.0512085 213.12698364 C22.25972412 213.07413208 21.46823975 213.02128052 20.652771 212.96682739 C-4.28500776 212.10561281 -27.20164772 222.97189414 -43.9487915 241.12698364 Z " fill="#47B1B9" transform="translate(414.94879150390625,163.87301635742188)"/>
<path d="M0 0 C-6.8973583 3.05075463 -12.30780128 4.16991555 -19.9140625 4.31640625 C-20.86404617 4.33718735 -21.81402985 4.35796844 -22.7928009 4.37937927 C-26.07010598 4.44711428 -29.34749173 4.5054781 -32.625 4.5625 C-33.77042267 4.58401123 -34.91584534 4.60552246 -36.09597778 4.62768555 C-55.48683708 4.97955988 -74.87580718 5.03427876 -94.26953125 5.02734375 C-95.46215828 5.02695162 -96.65478531 5.02655949 -97.88355255 5.02615547 C-110.07416896 5.02075751 -122.26472556 5.00476209 -134.45530033 4.97222996 C-139.09558502 4.96049341 -143.73587244 4.95231966 -148.37616539 4.94462776 C-151.63628295 4.93760196 -154.89634893 4.92496568 -158.15644836 4.91221619 C-160.11919097 4.90863091 -162.08193411 4.90532358 -164.04467773 4.90234375 C-164.94439112 4.89718026 -165.8441045 4.89201677 -166.77108192 4.88669682 C-168.84773141 4.88650934 -170.92429261 4.93745464 -173 5 C-174.78635282 6.78635282 -174.13638899 9.43371731 -174.14476013 11.84797668 C-174.15165863 13.119375 -174.15855713 14.39077332 -174.16566467 15.70069885 C-174.16837977 17.12313829 -174.17101689 18.54557787 -174.17358398 19.96801758 C-174.17988604 21.45606685 -174.18665145 22.94411421 -174.19384766 24.43215942 C-174.20855025 27.64607665 -174.22026228 30.85998644 -174.22979546 34.07392311 C-174.24523191 39.16428165 -174.26918575 44.25457767 -174.29469299 49.34489441 C-174.36592256 63.82355795 -174.42548106 78.30225863 -174.47680664 92.78100586 C-174.50520459 100.77056761 -174.54064538 108.76006849 -174.58346039 116.74956626 C-174.61010247 121.79992813 -174.62808859 126.85022109 -174.63949764 131.90063918 C-174.64869225 135.06099677 -174.66608709 138.22127172 -174.68567657 141.38158035 C-174.693085 142.8358917 -174.69722903 144.29022437 -174.69767189 145.74455452 C-174.70432527 157.8447018 -175.14787239 170.09584035 -181 181 C-181.66 181.33 -182.32 181.66 -183 182 C-182.80664062 181.443125 -182.61328125 180.88625 -182.4140625 180.3125 C-182.15367187 179.549375 -181.89328125 178.78625 -181.625 178 C-181.36976563 177.2575 -181.11453125 176.515 -180.8515625 175.75 C-180.43003906 174.38875 -180.43003906 174.38875 -180 173 C-179.65901276 171.94872925 -179.31802551 170.8974585 -178.96670532 169.81433105 C-177.3164816 163.09012772 -177.69034663 156.10099667 -177.68115234 149.22070312 C-177.67184377 147.62347919 -177.66167373 146.02626007 -177.65071106 144.42904663 C-177.62350167 140.11148644 -177.60828863 135.79395872 -177.59528303 131.47633553 C-177.5796127 126.95728982 -177.55283497 122.43831002 -177.5272522 117.91931152 C-177.48053336 109.37018831 -177.44375594 100.8210526 -177.41057932 92.27186728 C-177.37230914 82.53542957 -177.32291184 72.79905817 -177.27259517 63.06267643 C-177.1693779 43.0418333 -177.0800844 23.02094816 -177 3 C-176.15793031 2.99761165 -175.31586061 2.99522329 -174.44827366 2.99276257 C-153.94087546 2.93357762 -133.43359444 2.8580051 -112.92632389 2.76428509 C-103.00908027 2.71935591 -93.09187232 2.67993458 -83.17456055 2.65356445 C-74.52871739 2.63056109 -65.88298741 2.5971369 -57.23723406 2.55129844 C-52.66110499 2.52739778 -48.0850878 2.50864832 -43.50889778 2.50238609 C-39.19720354 2.49632095 -34.88579544 2.47626961 -30.57420731 2.44572449 C-28.9960892 2.43696713 -27.41793366 2.43321689 -25.83979225 2.43499184 C-18.37329061 2.44073545 -6.11876271 -2.03958757 0 0 Z " fill="#3D979D" transform="translate(836,657)"/>
<path d="M0 0 C0.99 0.495 0.99 0.495 2 1 C3.8808721 6.89141132 4.28651208 12.26500089 4.25396729 18.41452026 C4.25708727 19.33057671 4.26020725 20.24663315 4.26342177 21.19044888 C4.27136347 24.24275512 4.26509321 27.29486044 4.25878906 30.34716797 C4.26150051 32.54212052 4.2650623 34.73707217 4.26940918 36.93202209 C4.27851391 42.87986283 4.27499765 48.82763406 4.26865101 54.77547598 C4.26358496 60.9978717 4.26828379 67.22026151 4.27142334 73.44265747 C4.27529239 84.55350355 4.26908421 95.66432228 4.25890467 106.77516295 C4.24995655 116.85435602 4.25153313 126.93350306 4.26074219 137.01269531 C4.27143632 148.72274995 4.275435 160.43277774 4.26951766 172.14283669 C4.26639428 178.34002611 4.26599903 184.53718379 4.27259064 190.73437119 C4.27834858 196.55381635 4.27439581 202.37317411 4.26280212 208.19260979 C4.26014793 210.33325111 4.26093347 212.47389973 4.26532745 214.61453819 C4.27075408 217.5255868 4.26398426 220.43635132 4.25396729 223.34738159 C4.25842873 224.20378042 4.26289017 225.06017925 4.26748681 225.94252956 C4.22830118 231.77169882 4.22830118 231.77169882 2 234 C2.00184359 232.87870697 2.00368717 231.75741394 2.00558662 230.60214233 C2.04998533 203.31888102 2.08285136 176.0356244 2.10362434 148.75233459 C2.113937 135.55834672 2.12799718 122.36438271 2.15087891 109.17041016 C2.17081304 97.67058166 2.18371651 86.17077044 2.18817699 74.67092514 C2.19078431 68.58184418 2.19691256 62.49281267 2.21146011 56.40374756 C2.22504433 50.67140583 2.22922091 44.93913387 2.22621536 39.20677757 C2.22676515 37.1041342 2.23073755 35.00148847 2.23841095 32.89885902 C2.24838525 30.02452838 2.24595974 27.15045997 2.24050903 24.27612305 C2.24633472 23.4473081 2.2521604 22.61849316 2.25816262 21.76456261 C2.23129311 16.5096028 1.37147789 12.07025996 0 7 C-0.15334465 4.63440713 -0.0988885 2.37332405 0 0 Z " fill="#419DA3" transform="translate(857,392)"/>
<path d="M0 0 C0.66 0 1.32 0 2 0 C2 15.51 2 31.02 2 47 C1.34 47 0.68 47 0 47 C-0.1680197 40.62810114 -0.32794807 34.25603653 -0.48217773 27.88378906 C-0.53563881 25.71479666 -0.59097127 23.54584956 -0.64819336 21.37695312 C-0.72998976 18.26442231 -0.80511587 15.1517921 -0.87890625 12.0390625 C-0.91945885 10.57806625 -0.91945885 10.57806625 -0.96083069 9.08755493 C-0.98092697 8.18677216 -1.00102325 7.28598938 -1.02172852 6.35791016 C-1.04171402 5.56293121 -1.06169952 4.76795227 -1.08229065 3.94888306 C-1 2 -1 2 0 0 Z " fill="#45A2A8" transform="translate(659,230)"/>
<path d="M0 0 C1.57599976 0.00616333 1.57599976 0.00616333 3.18383789 0.01245117 C4.34592773 0.01438477 5.50801758 0.01631836 6.70532227 0.01831055 C7.92670898 0.03055664 9.1480957 0.04280273 10.40649414 0.05541992 C11.59307617 0.05606445 12.7796582 0.05670898 14.00219727 0.05737305 C21.20885482 0.09299079 28.30599388 0.44804733 35.46899414 1.24291992 C35.46899414 1.57291992 35.46899414 1.90291992 35.46899414 2.24291992 C26.29227676 3.16087882 17.36261081 3.24332706 8.15649414 2.80541992 C6.3128125 2.72710937 6.3128125 2.72710937 4.43188477 2.6472168 C1.44388175 2.51932562 -1.54362434 2.38447308 -4.53100586 2.24291992 C-2.53100586 0.24291992 -2.53100586 0.24291992 0 0 Z " fill="#3D989E" transform="translate(498.531005859375,163.757080078125)"/>
<path d="M0 0 C0.33 0 0.66 0 1 0 C1 12.21 1 24.42 1 37 C1.66 37 2.32 37 3 37 C3.1875 39.3125 3.1875 39.3125 3 42 C2.01 42.99 1.02 43.98 0 45 C0 30.15 0 15.3 0 0 Z " fill="#4ABCC1" transform="translate(658,240)"/>
<path d="M0 0 C0.33 0 0.66 0 1 0 C1.05805933 4.24994263 1.09361654 8.49978324 1.125 12.75 C1.14175781 13.9565625 1.15851562 15.163125 1.17578125 16.40625 C1.18222656 17.56640625 1.18867187 18.7265625 1.1953125 19.921875 C1.20578613 20.99018555 1.21625977 22.05849609 1.22705078 23.15917969 C1.00161519 25.97979105 0.45848994 27.60787463 -1 30 C-1.19412181 28.52168779 -1.38012131 27.04230684 -1.5625 25.5625 C-1.66691406 24.73878906 -1.77132812 23.91507812 -1.87890625 23.06640625 C-1.91886719 22.38449219 -1.95882812 21.70257813 -2 21 C-1.67 20.67 -1.34 20.34 -1 20 C-0.84344973 18.51361008 -0.74933057 17.02050873 -0.68359375 15.52734375 C-0.64169922 14.62822266 -0.59980469 13.72910156 -0.55664062 12.80273438 C-0.51732422 11.85720703 -0.47800781 10.91167969 -0.4375 9.9375 C-0.37272461 8.5134082 -0.37272461 8.5134082 -0.30664062 7.06054688 C-0.20020724 4.70718647 -0.09818992 2.35371646 0 0 Z " fill="#409CA2" transform="translate(674,451)"/>
<path d="M0 0 C0.66 0.33 1.32 0.66 2 1 C1.43152344 1.556875 0.86304688 2.11375 0.27734375 2.6875 C-4.70853286 7.61511094 -9.46795054 12.65189019 -14 18 C-14.33 17.34 -14.66 16.68 -15 16 C-10.23991693 10.4069024 -5.25404324 5.13122145 0 0 Z " fill="#479EA4" transform="translate(554,619)"/>
<path d="M0 0 C1.40185547 0.00966797 1.40185547 0.00966797 2.83203125 0.01953125 C4.28416016 0.04466797 4.28416016 0.04466797 5.765625 0.0703125 C6.74917969 0.07933594 7.73273437 0.08835937 8.74609375 0.09765625 C11.16951907 0.12118465 13.59244722 0.15405882 16.015625 0.1953125 C16.015625 0.5253125 16.015625 0.8553125 16.015625 1.1953125 C11.395625 1.5253125 6.775625 1.8553125 2.015625 2.1953125 C2.015625 2.5253125 2.015625 2.8553125 2.015625 3.1953125 C-1.614375 2.8653125 -5.244375 2.5353125 -8.984375 2.1953125 C-5.18277621 0.29451311 -4.00233359 -0.04880895 0 0 Z " fill="#4DB9BF" transform="translate(582.984375,374.8046875)"/>
<path d="M0 0 C3.3 0 6.6 0 10 0 C10 0.99 10 1.98 10 3 C6.37 3 2.74 3 -1 3 C-0.67 2.01 -0.34 1.02 0 0 Z " fill="#3EABB1" transform="translate(584,164)"/>
<path d="M0 0 C0 3.99904969 -1.72586967 5.80200422 -4 9 C-4.99 8.67 -5.98 8.34 -7 8 C-7 7.34 -7 6.68 -7 6 C-6.401875 5.7525 -5.80375 5.505 -5.1875 5.25 C-2.71352479 3.83629988 -1.56629745 2.34944617 0 0 Z " fill="#45A1A6" transform="translate(517,415)"/>
<path d="M0 0 C2.64 0 5.28 0 8 0 C8 0.66 8 1.32 8 2 C3.545 2.495 3.545 2.495 -1 3 C-0.67 2.01 -0.34 1.02 0 0 Z " fill="#3EA2A8" transform="translate(571,164)"/>
<path d="M0 0 C0.99 0.66 1.98 1.32 3 2 C0.69 2 -1.62 2 -4 2 C-2.68 1.34 -1.36 0.68 0 0 Z " fill="#00FFFF" transform="translate(726,360)"/>
<path d="M0 0 C2.31 0 4.62 0 7 0 C7 0.33 7 0.66 7 1 C4.69 1 2.38 1 0 1 C0 0.67 0 0.34 0 0 Z " fill="#24DADA" transform="translate(407,861)"/>
<path d="M0 0 C0.99 0.66 1.98 1.32 3 2 C1.35 2 -0.3 2 -2 2 C-1.34 1.34 -0.68 0.68 0 0 Z " fill="#15E9E9" transform="translate(798,360)"/>
<path d="M0 0 C1.485 0.99 1.485 0.99 3 2 C1.68 1.67 0.36 1.34 -1 1 C-0.67 0.67 -0.34 0.34 0 0 Z " fill="#669999" transform="translate(262,360)"/>
<path d="M0 0 C4 1 4 1 4 1 Z " fill="#40BFBF" transform="translate(338,361)"/>
<path d="M0 0 C4 1 4 1 4 1 Z " fill="#00FFFF" transform="translate(292,361)"/>
<path d="M0 0 C3 1 3 1 3 1 Z " fill="#2AD4D4" transform="translate(591,861)"/>
<path d="M0 0 C3 1 3 1 3 1 Z " fill="#00FFFF" transform="translate(543,861)"/>
<path d="M0 0 C3 1 3 1 3 1 Z " fill="#2AD4D4" transform="translate(488,861)"/>
<path d="M0 0 C3 1 3 1 3 1 Z " fill="#00FFFF" transform="translate(473,861)"/>
<path d="M0 0 C3 1 3 1 3 1 Z " fill="#2AD4D4" transform="translate(416,861)"/>
<path d="M0 0 C3 1 3 1 3 1 Z " fill="#2AD4D4" transform="translate(177,653)"/>
<path d="M0 0 C3 1 3 1 3 1 Z " fill="#2AD4D4" transform="translate(600,379)"/>
<path d="M0 0 C3 1 3 1 3 1 Z " fill="#00FFFF" transform="translate(672,361)"/>
<path d="M0 0 C3 1 3 1 3 1 Z " fill="#00FFFF" transform="translate(227,361)"/>
<path d="M0 0 C0.66 0 1.32 0 2 0 C1.67 0.66 1.34 1.32 1 2 C0.67 1.34 0.34 0.68 0 0 Z " fill="#00FFFF" transform="translate(345,360)"/>
<path d="M0 0 C2 1 2 1 2 1 Z " fill="#00FFFF" transform="translate(584,861)"/>
<path d="M0 0 C2 1 2 1 2 1 Z " fill="#40BFBF" transform="translate(536,861)"/>
<path d="M0 0 C2 1 2 1 2 1 Z " fill="#2AD4D4" transform="translate(432,861)"/>
<path d="" fill="#40BFBF" transform="translate(0,0)"/>
<path d="" fill="#00FFFF" transform="translate(0,0)"/>
<path d="" fill="#40BFBF" transform="translate(0,0)"/>
<path d="" fill="#00FFFF" transform="translate(0,0)"/>
<path d="" fill="#40BFBF" transform="translate(0,0)"/>
<path d="" fill="#00FFFF" transform="translate(0,0)"/>
<path d="" fill="#6A9595" transform="translate(0,0)"/>
<path d="" fill="#00FFFF" transform="translate(0,0)"/>
<path d="M0 0 C2 1 2 1 2 1 Z " fill="#00FFFF" transform="translate(624,386)"/>
<path d="M0 0 C2 1 2 1 2 1 Z " fill="#40BFBF" transform="translate(459,383)"/>
<path d="M0 0 C2 1 2 1 2 1 Z " fill="#00FFFF" transform="translate(790,361)"/>
<path d="M0 0 C2 1 2 1 2 1 Z " fill="#00FFFF" transform="translate(783,361)"/>
<path d="M0 0 C2 1 2 1 2 1 Z " fill="#00FFFF" transform="translate(732,361)"/>
<path d="M0 0 C2 1 2 1 2 1 Z " fill="#00FFFF" transform="translate(319,361)"/>
<path d="M0 0 C2 1 2 1 2 1 Z " fill="#00FFFF" transform="translate(308,361)"/>
<path d="M0 0 C2 1 2 1 2 1 Z " fill="#808080" transform="translate(277,361)"/>
<path d="M0 0 C2 1 2 1 2 1 Z " fill="#00FFFF" transform="translate(274,361)"/>
<path d="M0 0 C2 1 2 1 2 1 Z " fill="#00FFFF" transform="translate(267,361)"/>
<path d="M0 0 C2 1 2 1 2 1 Z " fill="#609F9F" transform="translate(385,168)"/>
<path d="" fill="#00FFFF" transform="translate(0,0)"/>
<path d="" fill="#00FFFF" transform="translate(0,0)"/>
<path d="" fill="#00FFFF" transform="translate(0,0)"/>
<path d="" fill="#808080" transform="translate(0,0)"/>
<path d="" fill="#00FFFF" transform="translate(0,0)"/>
<path d="" fill="#00FFFF" transform="translate(0,0)"/>
<path d="" fill="#808080" transform="translate(0,0)"/>
<path d="" fill="#00FFFF" transform="translate(0,0)"/>
<path d="" fill="#00FFFF" transform="translate(0,0)"/>
<path d="" fill="#00FFFF" transform="translate(0,0)"/>
<path d="" fill="#00FFFF" transform="translate(0,0)"/>
<path d="" fill="#00FFFF" transform="translate(0,0)"/>
<path d="" fill="#00FFFF" transform="translate(0,0)"/>
<path d="" fill="#00FFFF" transform="translate(0,0)"/>
<path d="" fill="#00FFFF" transform="translate(0,0)"/>
<path d="" fill="#55AAAA" transform="translate(0,0)"/>
<path d="" fill="#00FFFF" transform="translate(0,0)"/>
<path d="" fill="#00FFFF" transform="translate(0,0)"/>
<path d="" fill="#00FFFF" transform="translate(0,0)"/>
<path d="" fill="#00FFFF" transform="translate(0,0)"/>
<path d="" fill="#00FFFF" transform="translate(0,0)"/>
<path d="" fill="#00FFFF" transform="translate(0,0)"/>
<path d="" fill="#55AAAA" transform="translate(0,0)"/>
<path d="" fill="#00FFFF" transform="translate(0,0)"/>
<path d="" fill="#00FFFF" transform="translate(0,0)"/>
<path d="" fill="#00FFFF" transform="translate(0,0)"/>
<path d="" fill="#00FFFF" transform="translate(0,0)"/>
<path d="" fill="#00FFFF" transform="translate(0,0)"/>
<path d="" fill="#00FFFF" transform="translate(0,0)"/>
<path d="" fill="#00FFFF" transform="translate(0,0)"/>
<path d="" fill="#00FFFF" transform="translate(0,0)"/>
<path d="" fill="#00FFFF" transform="translate(0,0)"/>
<path d="" fill="#00FFFF" transform="translate(0,0)"/>
<path d="" fill="#00FFFF" transform="translate(0,0)"/>
<path d="" fill="#00FFFF" transform="translate(0,0)"/>
<path d="" fill="#00FFFF" transform="translate(0,0)"/>
<path d="" fill="#00FFFF" transform="translate(0,0)"/>
<path d="" fill="#00FFFF" transform="translate(0,0)"/>
<path d="" fill="#00FFFF" transform="translate(0,0)"/>
<path d="" fill="#00FFFF" transform="translate(0,0)"/>
<path d="" fill="#00FFFF" transform="translate(0,0)"/>
<path d="" fill="#00FFFF" transform="translate(0,0)"/>
<path d="" fill="#00FFFF" transform="translate(0,0)"/>
<path d="" fill="#00FFFF" transform="translate(0,0)"/>
<path d="" fill="#00FFFF" transform="translate(0,0)"/>
<path d="" fill="#00FFFF" transform="translate(0,0)"/>
<path d="" fill="#00FFFF" transform="translate(0,0)"/>
<path d="" fill="#55AAAA" transform="translate(0,0)"/>
<path d="" fill="#808080" transform="translate(0,0)"/>
<path d="" fill="#00FFFF" transform="translate(0,0)"/>
<path d="" fill="#00FFFF" transform="translate(0,0)"/>
<path d="" fill="#00FFFF" transform="translate(0,0)"/>
<path d="" fill="#808080" transform="translate(0,0)"/>
<path d="" fill="#808080" transform="translate(0,0)"/>
<path d="" fill="#00FFFF" transform="translate(0,0)"/>
<path d="" fill="#00FFFF" transform="translate(0,0)"/>
<path d="" fill="#00FFFF" transform="translate(0,0)"/>
<path d="" fill="#00FFFF" transform="translate(0,0)"/>
<path d="" fill="#55AAAA" transform="translate(0,0)"/>
<path d="" fill="#00FFFF" transform="translate(0,0)"/>
<path d="" fill="#00FFFF" transform="translate(0,0)"/>
<path d="" fill="#00FFFF" transform="translate(0,0)"/>
<path d="" fill="#00FFFF" transform="translate(0,0)"/>
<path d="" fill="#00FFFF" transform="translate(0,0)"/>
<path d="" fill="#00FFFF" transform="translate(0,0)"/>
<path d="" fill="#00FFFF" transform="translate(0,0)"/>
<path d="" fill="#55AAAA" transform="translate(0,0)"/>
<path d="" fill="#808080" transform="translate(0,0)"/>
<path d="" fill="#00FFFF" transform="translate(0,0)"/>
<path d="" fill="#808080" transform="translate(0,0)"/>
<path d="" fill="#00FFFF" transform="translate(0,0)"/>
<path d="" fill="#00FFFF" transform="translate(0,0)"/>
<path d="" fill="#00FFFF" transform="translate(0,0)"/>
<path d="" fill="#00FFFF" transform="translate(0,0)"/>
<path d="" fill="#00FFFF" transform="translate(0,0)"/>
<path d="" fill="#00FFFF" transform="translate(0,0)"/>
<path d="" fill="#00FFFF" transform="translate(0,0)"/>
<path d="" fill="#808080" transform="translate(0,0)"/>
<path d="" fill="#00FFFF" transform="translate(0,0)"/>
<path d="" fill="#00FFFF" transform="translate(0,0)"/>
<path d="" fill="#00FFFF" transform="translate(0,0)"/>
<path d="" fill="#00FFFF" transform="translate(0,0)"/>
<path d="" fill="#55AAAA" transform="translate(0,0)"/>
<path d="" fill="#00FFFF" transform="translate(0,0)"/>
<path d="" fill="#00FFFF" transform="translate(0,0)"/>
<path d="" fill="#00FFFF" transform="translate(0,0)"/>
<path d="" fill="#00FFFF" transform="translate(0,0)"/>
<path d="" fill="#808080" transform="translate(0,0)"/>
<path d="" fill="#00FFFF" transform="translate(0,0)"/>
<path d="" fill="#55AAAA" transform="translate(0,0)"/>
<path d="" fill="#66CCCC" transform="translate(0,0)"/>
<path d="" fill="#00FFFF" transform="translate(0,0)"/>
<path d="" fill="#00FFFF" transform="translate(0,0)"/>
<path d="" fill="#00FFFF" transform="translate(0,0)"/>
<path d="" fill="#00FFFF" transform="translate(0,0)"/>
<path d="" fill="#00FFFF" transform="translate(0,0)"/>
<path d="" fill="#00FFFF" transform="translate(0,0)"/>
<path d="" fill="#00FFFF" transform="translate(0,0)"/>
<path d="" fill="#00FFFF" transform="translate(0,0)"/>
<path d="" fill="#00FFFF" transform="translate(0,0)"/>
<path d="" fill="#00FFFF" transform="translate(0,0)"/>
<path d="" fill="#00FFFF" transform="translate(0,0)"/>
<path d="" fill="#808080" transform="translate(0,0)"/>
<path d="" fill="#808080" transform="translate(0,0)"/>
<path d="" fill="#808080" transform="translate(0,0)"/>
<path d="" fill="#00FFFF" transform="translate(0,0)"/>
<path d="" fill="#00FFFF" transform="translate(0,0)"/>
<path d="" fill="#00FFFF" transform="translate(0,0)"/>
<path d="" fill="#00FFFF" transform="translate(0,0)"/>
<path d="" fill="#808080" transform="translate(0,0)"/>
<path d="" fill="#808080" transform="translate(0,0)"/>
<path d="" fill="#00FFFF" transform="translate(0,0)"/>
<path d="" fill="#00FFFF" transform="translate(0,0)"/>
<path d="" fill="#00FFFF" transform="translate(0,0)"/>
<path d="" fill="#00FFFF" transform="translate(0,0)"/>
<path d="" fill="#00FFFF" transform="translate(0,0)"/>
<path d="" fill="#808080" transform="translate(0,0)"/>
<path d="" fill="#00FFFF" transform="translate(0,0)"/>
<path d="" fill="#808080" transform="translate(0,0)"/>
<path d="" fill="#00FFFF" transform="translate(0,0)"/>
<path d="" fill="#00FFFF" transform="translate(0,0)"/>
<path d="" fill="#00FFFF" transform="translate(0,0)"/>
<path d="" fill="#00FFFF" transform="translate(0,0)"/>
<path d="" fill="#808080" transform="translate(0,0)"/>
<path d="" fill="#808080" transform="translate(0,0)"/>
<path d="" fill="#00FFFF" transform="translate(0,0)"/>
<path d="" fill="#00FFFF" transform="translate(0,0)"/>
<path d="" fill="#00FFFF" transform="translate(0,0)"/>
<path d="" fill="#00FFFF" transform="translate(0,0)"/>
<path d="" fill="#808080" transform="translate(0,0)"/>
<path d="" fill="#00FFFF" transform="translate(0,0)"/>
<path d="" fill="#00FFFF" transform="translate(0,0)"/>
<path d="" fill="#00FFFF" transform="translate(0,0)"/>
<path d="" fill="#00FFFF" transform="translate(0,0)"/>
<path d="" fill="#808080" transform="translate(0,0)"/>
<path d="" fill="#00FFFF" transform="translate(0,0)"/>
<path d="" fill="#00FFFF" transform="translate(0,0)"/>
<path d="" fill="#808080" transform="translate(0,0)"/>
<path d="" fill="#00FFFF" transform="translate(0,0)"/>
<path d="" fill="#00FFFF" transform="translate(0,0)"/>
<path d="" fill="#00FFFF" transform="translate(0,0)"/>
<path d="" fill="#00FFFF" transform="translate(0,0)"/>
<path d="" fill="#55AAAA" transform="translate(0,0)"/>
<path d="" fill="#00FFFF" transform="translate(0,0)"/>
<path d="" fill="#55AAAA" transform="translate(0,0)"/>
<path d="" fill="#00FFFF" transform="translate(0,0)"/>
<path d="" fill="#55AAAA" transform="translate(0,0)"/>
<path d="" fill="#00FFFF" transform="translate(0,0)"/>
<path d="" fill="#00FFFF" transform="translate(0,0)"/>
<path d="" fill="#00FFFF" transform="translate(0,0)"/>
<path d="" fill="#00FFFF" transform="translate(0,0)"/>
<path d="" fill="#00FFFF" transform="translate(0,0)"/>
<path d="" fill="#00FFFF" transform="translate(0,0)"/>
<path d="" fill="#00FFFF" transform="translate(0,0)"/>
<path d="" fill="#00FFFF" transform="translate(0,0)"/>
<path d="" fill="#808080" transform="translate(0,0)"/>
<path d="" fill="#00FFFF" transform="translate(0,0)"/>
<path d="" fill="#00FFFF" transform="translate(0,0)"/>
<path d="" fill="#808080" transform="translate(0,0)"/>
<path d="" fill="#00FFFF" transform="translate(0,0)"/>
<path d="" fill="#00FFFF" transform="translate(0,0)"/>
<path d="" fill="#00FFFF" transform="translate(0,0)"/>
<path d="" fill="#00FFFF" transform="translate(0,0)"/>
<path d="" fill="#808080" transform="translate(0,0)"/>
<path d="" fill="#00FFFF" transform="translate(0,0)"/>
<path d="" fill="#00FFFF" transform="translate(0,0)"/>
<path d="" fill="#00FFFF" transform="translate(0,0)"/>
<path d="" fill="#00FFFF" transform="translate(0,0)"/>
<path d="" fill="#808080" transform="translate(0,0)"/>
<path d="" fill="#00FFFF" transform="translate(0,0)"/>
<path d="" fill="#00FFFF" transform="translate(0,0)"/>
<path d="" fill="#00FFFF" transform="translate(0,0)"/>
<path d="" fill="#808080" transform="translate(0,0)"/>
<path d="" fill="#00FFFF" transform="translate(0,0)"/>
<path d="" fill="#00FFFF" transform="translate(0,0)"/>
<path d="" fill="#00FFFF" transform="translate(0,0)"/>
<path d="" fill="#00FFFF" transform="translate(0,0)"/>
<path d="" fill="#00FFFF" transform="translate(0,0)"/>
</svg>
